<mxfile host="app.diagrams.net" modified="2023-09-07T07:54:16.797Z" agent="Mozilla/5.0 (Windows NT 10.0; Win64; x64; rv:109.0) Gecko/20100101 Firefox/117.0" etag="q3Vs8SsEnM5RdxdDdlg2" version="21.7.2" type="github">
  <diagram name="Page-1" id="xMceBH584eg32xvEKxVm">
    <mxGraphModel dx="955" dy="515" grid="1" gridSize="10" guides="1" tooltips="1" connect="1" arrows="1" fold="1" page="1" pageScale="1" pageWidth="850" pageHeight="1100" math="0" shadow="0">
      <root>
        <mxCell id="0" />
        <mxCell id="1" parent="0" />
      </root>
    </mxGraphModel>
  </diagram>
</mxfile>
